<svg version="1.1" id="Layer_1" xmlns="http://www.w3.org/2000/svg" xmlns:xlink="http://www.w3.org/1999/xlink" x="0px" y="0px"
	 width="100%" viewBox="0 0 1080 1080" enable-background="new 0 0 1080 1080" xml:space="preserve">
<path fill="none" opacity="1.000000" stroke="none" 
	d="
M599.000000,1081.000000 
	C399.356323,1081.000000 200.212631,1081.000000 1.068943,1081.000000 
	C1.045955,1080.856323 1.002823,1080.712646 1.002822,1080.568970 
	C1.000007,720.777161 1.000000,360.985382 1.000000,1.096787 
	C360.893890,1.096787 720.787842,1.096787 1080.840820,1.096787 
	C1080.840820,360.999939 1080.840820,720.999939 1080.840820,1081.000000 
	C920.461914,1081.000000 759.980957,1081.000000 599.000000,1081.000000 
M617.533386,341.193695 
	C622.300171,328.093719 627.066956,314.993744 631.782715,302.033905 
	C653.932190,301.652771 665.216675,293.772949 667.734192,277.207642 
	C669.721252,264.132782 661.371216,250.611298 648.567200,246.170029 
	C635.325012,241.576782 620.607727,247.270172 613.857483,259.597656 
	C606.262146,273.468262 610.467346,287.297089 626.355774,299.856689 
	C621.570129,313.137115 616.737122,326.548981 611.157776,339.945831 
	C589.238037,332.353851 566.597595,328.829895 543.506104,327.027069 
	C543.513489,276.562164 543.562134,226.097183 543.447632,175.632568 
	C543.438782,171.724899 544.363892,170.354935 548.509399,169.818527 
	C579.261230,165.839432 601.876404,134.900314 596.702332,104.306641 
	C591.176819,71.634331 560.220764,49.848141 528.696655,56.445568 
	C501.512054,62.134808 482.244049,85.275879 482.066895,112.448425 
	C481.886871,140.061417 500.711731,163.363647 528.111389,169.360367 
	C531.166504,170.029022 534.294312,170.365402 537.785278,170.918777 
	C537.785278,223.414154 537.785278,275.675598 536.902649,328.082336 
	C529.969299,328.588196 522.906860,328.425354 516.128662,329.734589 
	C500.419830,332.768890 484.848450,336.514862 469.049622,339.218231 
	C456.284729,304.085419 443.519806,268.952637 430.699951,233.668610 
	C440.625031,228.012573 446.375854,219.848434 446.879517,208.624512 
	C447.606964,192.411850 434.644348,178.986984 418.464600,178.860565 
	C402.148712,178.733063 388.964172,191.821442 389.214630,207.897141 
	C389.470428,224.314774 403.165924,237.262863 419.626282,236.090088 
	C424.091736,235.771942 425.826447,236.857544 427.351227,241.129501 
	C439.368408,274.798706 451.712372,308.351288 463.290192,342.418762 
	C442.950836,350.372437 424.125183,360.977997 406.955688,374.503418 
	C405.955353,375.291443 404.708191,375.766083 403.089172,375.786377 
	C394.142487,365.093292 385.195770,354.400208 376.297211,343.764679 
	C389.019318,328.551270 384.573151,311.462311 375.546295,302.841675 
	C365.292389,293.049194 349.216003,291.958832 338.071899,300.537445 
	C326.415070,309.510834 323.270966,325.486694 330.676178,338.116821 
	C338.815857,351.999634 353.113342,355.403992 372.007263,347.718964 
	C381.115540,358.547852 390.305176,369.473480 399.057465,380.910767 
	C381.719696,396.191620 367.176300,413.822266 354.256714,433.134003 
	C308.762512,406.891388 263.268280,380.648804 217.834976,354.441345 
	C233.779175,318.763824 215.314621,288.245575 192.619034,276.752716 
	C166.695236,263.625092 135.028305,271.591095 118.695389,295.647369 
	C102.397888,319.651550 106.607460,352.574463 128.345749,371.326080 
	C139.398560,380.860352 152.255386,385.861176 166.792435,385.607849 
	C187.139511,385.253265 203.042648,376.031464 214.864761,359.394592 
	C231.271729,368.849731 247.258774,378.071991 263.254517,387.279053 
	C292.821960,404.297913 322.394501,421.307861 351.769165,439.048187 
	C349.475525,443.652588 346.708435,448.086334 344.975769,452.892914 
	C339.476166,468.149353 334.362396,483.544891 328.233887,498.645172 
	C291.614197,491.282654 254.994492,483.920105 218.303360,476.543182 
	C218.229233,474.965576 218.169373,473.820740 218.122543,472.675354 
	C217.535309,458.311310 206.654053,446.512756 192.674637,445.084442 
	C178.057922,443.591003 164.675659,453.037628 161.321838,467.216522 
	C158.038147,481.098938 165.817215,495.654114 179.238052,500.739136 
	C192.658249,505.823853 208.291779,500.231812 214.615372,487.330475 
	C216.826172,482.819977 219.108582,482.542267 223.368423,483.410919 
	C258.222656,490.518188 293.120819,497.410187 328.031769,505.164368 
	C326.952209,517.683716 325.162109,530.193726 324.997009,542.725098 
	C324.838379,554.762329 326.363098,566.821777 326.293579,578.976318 
	C312.450256,581.391968 298.606964,583.807617 284.951355,586.190491 
	C277.508423,569.569763 264.051941,562.266113 249.243637,566.301453 
	C236.104248,569.882019 226.884827,583.107849 228.159927,596.547363 
	C229.506439,610.739502 241.009689,622.030273 255.016586,622.907837 
	C271.656555,623.950378 281.599854,614.199829 286.510956,591.836975 
	C300.330627,589.407654 314.242462,586.962097 328.563354,585.237183 
	C328.871277,586.693176 329.183472,588.148254 329.486542,589.605286 
	C333.900879,610.827393 341.987122,630.676697 351.322662,650.053467 
	C306.086945,676.163635 260.851227,702.273804 215.276337,728.579773 
	C205.812668,714.906311 193.198914,706.150269 177.042145,703.237488 
	C160.851822,700.318665 145.900513,703.848877 132.603027,713.584778 
	C109.586182,730.436707 102.532043,761.585449 115.870880,786.819214 
	C129.220673,812.073669 158.967972,823.747009 185.813705,814.252686 
	C199.408890,809.444641 209.889862,800.780518 216.898849,788.224243 
	C226.852249,770.393250 226.497681,752.050476 218.302933,733.511719 
	C227.625290,728.137329 236.552322,722.987183 245.482819,717.843140 
	C281.963501,696.829590 318.445251,675.817871 355.441803,655.294128 
	C367.323120,675.110352 382.376892,692.269897 398.970581,708.376160 
	C375.232697,736.662415 351.494812,764.948730 327.841125,793.134705 
	C312.359833,785.105896 297.432129,787.800964 288.439240,799.883301 
	C280.052490,811.151245 281.007568,826.919189 290.688751,837.022095 
	C300.569916,847.333618 316.382141,848.909424 328.083099,840.662659 
	C333.879791,836.577209 337.732269,831.059448 339.397430,824.135559 
	C341.870178,813.853455 339.016968,804.802490 332.348358,796.825012 
	C356.299072,768.229065 379.931610,740.013062 404.224762,711.849915 
	C422.568176,726.035645 442.342529,737.731140 463.785431,746.861572 
	C459.745026,757.936584 455.516571,768.948303 451.754395,780.117065 
	C450.192230,784.754639 448.436584,786.612488 442.847229,786.239563 
	C428.137573,785.258484 416.111969,795.823669 413.578308,810.661438 
	C411.275665,824.146606 419.772980,837.771179 433.219116,842.153564 
	C446.728668,846.556641 461.460571,840.397827 467.843109,827.678589 
	C474.228455,814.953674 470.383942,799.685669 458.665741,791.278564 
	C457.367920,790.347534 456.026031,789.477905 454.764282,788.620361 
	C459.681519,774.833496 464.419830,761.548279 469.968719,748.291443 
	C491.966766,755.717957 514.593323,759.552429 537.798218,761.073914 
	C537.798218,811.332825 537.798218,861.591797 537.798218,911.784851 
	C499.124969,915.664124 480.588989,947.955444 483.132202,975.025330 
	C485.826782,1003.706177 509.015564,1025.766357 538.206665,1027.267578 
	C566.007019,1028.697510 591.682373,1008.798096 596.961853,981.695557 
	C599.742065,967.422729 597.896667,953.802429 590.534241,941.193237 
	C580.125244,923.366455 564.081116,914.176819 543.514893,911.993835 
	C543.514893,861.064148 543.514893,810.602844 544.518433,759.998291 
	C567.610046,759.665527 589.992004,755.294495 612.036621,748.880005 
	C624.854614,784.091125 637.672668,819.302185 650.423218,854.327820 
	C636.278687,864.422241 631.457825,876.119934 635.622131,889.233704 
	C640.193542,903.629578 654.731812,912.033569 669.449219,908.787964 
	C683.482300,905.693237 693.492676,891.714722 691.797180,877.581116 
	C689.989929,862.515442 677.526306,851.270447 662.370300,852.134949 
	C656.869690,852.448730 655.109131,850.680908 653.416382,845.942322 
	C641.512939,812.621521 629.299255,779.411560 617.934387,745.833374 
	C632.082520,738.477478 646.367188,731.368286 660.315552,723.651306 
	C666.383362,720.294128 671.760437,715.688416 677.936768,712.241394 
	C686.909302,722.957153 695.881836,733.672974 704.810486,744.336304 
	C693.802368,760.550720 694.494629,775.331360 706.625427,786.243591 
	C717.140137,795.702026 733.097046,795.946838 744.164429,786.819336 
	C755.191833,777.724731 757.729858,761.562256 750.048584,749.347900 
	C741.605225,735.921936 727.158081,732.728882 709.228088,740.587708 
	C700.129517,729.726807 690.950684,718.770081 682.114685,707.233459 
	C699.537903,692.026611 714.003601,674.331787 726.975281,655.049255 
	C772.454468,681.308899 817.933655,707.568481 863.345337,733.789124 
	C847.551392,769.054260 865.348206,800.172302 889.541260,811.956787 
	C916.381470,825.030701 948.599731,815.559937 964.159485,789.948792 
	C979.498169,764.701538 972.953979,731.792786 949.279968,713.959595 
	C926.551453,696.838623 888.560791,697.279785 866.165955,728.699341 
	C858.448303,724.259399 850.686279,719.797302 842.927368,715.329651 
	C804.996704,693.488525 767.066833,671.645935 729.297607,649.157959 
	C731.257263,645.321167 733.646606,641.639893 735.101013,637.620300 
	C740.892944,621.613403 746.393372,605.501038 752.830200,589.632996 
	C789.482849,596.946655 826.135498,604.260315 862.636353,611.543701 
	C864.517395,630.862122 874.028992,642.056824 889.019348,643.059570 
	C903.748047,644.044861 916.407410,635.135742 919.758667,621.426575 
	C923.092468,607.789307 916.070251,593.567932 903.273499,588.040649 
	C888.207153,581.533020 875.604797,587.098389 863.509644,605.781860 
	C858.098389,604.716003 852.572388,603.637146 847.050415,602.538208 
	C815.730896,596.305176 784.412354,590.067444 753.055725,583.033264 
	C754.053589,574.319397 755.888306,565.603455 755.867126,556.892029 
	C755.828491,541.026611 754.688721,525.163879 754.861084,509.165314 
	C768.607178,506.789276 782.353271,504.413239 796.230713,502.014496 
	C797.205872,504.087097 798.018677,506.065704 799.034790,507.933777 
	C805.923889,520.599548 821.175598,526.154236 834.652161,520.948914 
	C848.101440,515.754089 855.609192,501.363342 852.186951,487.338562 
	C848.932190,474.000244 836.605774,464.579712 823.245850,465.220032 
	C809.026794,465.901581 797.530273,476.165314 795.912109,490.300293 
	C795.396240,494.807373 794.226074,496.721252 789.356018,497.390381 
	C777.176514,499.063690 765.113037,501.581970 752.684082,502.958801 
	C752.275085,501.187286 751.835815,499.422119 751.461670,497.643250 
	C747.063721,476.735016 739.016235,457.201660 729.906433,438.074402 
	C774.111206,412.581390 818.315979,387.088348 862.481201,361.618103 
	C885.398560,394.438965 922.971680,394.318970 945.256470,378.242249 
	C969.320801,360.881714 976.652222,328.662170 962.188538,303.097076 
	C947.408081,276.972137 915.741333,266.631104 888.323120,278.673737 
	C865.171448,288.842438 844.206238,319.157074 859.672485,356.244873 
	C859.316956,356.536560 858.977966,356.902679 858.565125,357.140900 
	C814.462341,382.591858 770.354126,408.033203 725.886841,432.955078 
	C713.803284,413.210144 698.823486,395.896881 682.206543,379.800598 
	C705.941040,351.530243 729.675537,323.259918 753.331604,295.082977 
	C769.307373,303.207245 784.479553,300.217896 793.267822,287.547577 
	C801.421204,275.792725 799.819214,259.941986 789.491028,250.177673 
	C778.957214,240.218811 762.852112,239.591080 751.592896,248.700424 
	C738.750061,259.091003 737.757080,273.101166 748.615723,291.580505 
	C747.796509,292.577606 746.961548,293.610260 746.109558,294.628662 
	C723.241394,321.964111 700.371460,349.298096 676.870972,376.365112 
	C658.640015,362.009827 638.714905,350.589325 617.533386,341.193695 
z"/>
<path fill="#10b981" opacity="1.000000" stroke="none" 
	d="
M726.246155,433.475128 
	C770.354126,408.033203 814.462341,382.591858 858.565125,357.140900 
	C858.977966,356.902679 859.316956,356.536560 859.672485,356.244873 
	C844.206238,319.157074 865.171448,288.842438 888.323120,278.673737 
	C915.741333,266.631104 947.408081,276.972137 962.188538,303.097076 
	C976.652222,328.662170 969.320801,360.881714 945.256470,378.242249 
	C922.971680,394.318970 885.398560,394.438965 862.481201,361.618103 
	C818.315979,387.088348 774.111206,412.581390 729.315674,437.997620 
	C727.898682,436.438934 727.072388,434.957031 726.246155,433.475128 
M936.250977,342.185883 
	C935.418823,342.196930 934.582947,342.264252 933.755005,342.210297 
	C925.971252,341.703247 920.157593,335.860779 920.035156,328.446808 
	C919.913818,321.099762 925.212402,314.682373 932.886902,314.651550 
	C937.542236,314.632812 942.206787,316.925476 947.661255,318.393433 
	C948.281189,317.814362 949.969849,316.237091 951.646606,314.670990 
	C945.018372,306.273926 932.127808,304.066193 922.679565,309.612915 
	C913.197815,315.179321 909.519226,326.703644 913.946289,336.972656 
	C918.312256,347.099884 929.294983,352.109833 940.525757,349.097412 
	C949.632324,346.654724 955.702637,337.661926 954.489563,328.355316 
	C947.768127,328.355316 941.045959,328.355316 934.463135,328.355316 
	C934.463135,330.814758 934.463135,332.887024 934.463135,335.436890 
	C938.227234,335.436890 941.632263,335.436890 945.707703,335.436890 
	C943.778015,339.776764 941.005554,341.663574 936.250977,342.185883 
M881.956604,313.382599 
	C878.061523,322.002686 873.994446,330.551392 870.370117,339.283813 
	C869.192993,342.119812 869.173889,345.436401 868.608093,348.629395 
	C882.112610,348.629395 894.511414,348.629395 907.901611,348.629395 
	C907.005310,344.819702 906.664612,341.342712 905.372009,338.265503 
	C901.774109,329.699951 897.825684,321.279694 893.915833,312.848358 
	C892.810608,310.465057 892.448975,307.717987 888.406006,307.583466 
	C884.240173,307.444855 883.484802,310.008636 881.956604,313.382599 
z"/>
<path fill="#10b981" opacity="1.000000" stroke="none" 
	d="
M537.785278,327.937042 
	C537.785278,275.675598 537.785278,223.414154 537.785278,170.918777 
	C534.294312,170.365402 531.166504,170.029022 528.111389,169.360367 
	C500.711731,163.363647 481.886871,140.061417 482.066895,112.448425 
	C482.244049,85.275879 501.512054,62.134808 528.696655,56.445568 
	C560.220764,49.848141 591.176819,71.634331 596.702332,104.306641 
	C601.876404,134.900314 579.261230,165.839432 548.509399,169.818527 
	C544.363892,170.354935 543.438782,171.724899 543.447632,175.632568 
	C543.562134,226.097183 543.513489,276.562164 543.099487,327.546967 
	C541.057068,328.023590 539.421143,327.980316 537.785278,327.937042 
M522.686462,154.044022 
	C534.008606,148.854919 532.636536,138.747955 531.856689,128.713470 
	C539.231323,130.142883 545.646667,129.466492 550.912598,124.298470 
	C556.313354,118.998108 556.698120,112.346512 555.515808,104.857880 
	C557.654419,105.179985 559.237793,105.433670 560.825623,105.655022 
	C568.321167,106.699913 574.614624,104.331139 579.677551,98.790436 
	C580.353455,98.050720 580.876282,96.574577 580.595764,95.729782 
	C580.329895,94.929123 578.961731,94.414673 577.996033,93.942802 
	C575.968384,92.951950 573.523682,92.485985 571.899536,91.063286 
	C568.025818,87.669983 564.381531,83.977295 560.960693,80.124893 
	C559.786682,78.802795 559.614990,76.619461 558.863464,74.882347 
	C558.437134,73.896851 557.880615,72.368980 557.174438,72.241806 
	C556.080383,72.044777 554.500610,72.499702 553.663513,73.265160 
	C549.438965,77.128265 546.936096,81.939400 546.966125,87.762764 
	C546.981934,90.830261 547.421570,93.895569 547.699402,97.326294 
	C540.323364,95.887604 533.739075,96.439972 528.390869,101.875481 
	C523.114624,107.237839 522.446899,113.761391 524.054565,121.269684 
	C521.715759,120.884689 519.972351,120.540359 518.213623,120.318275 
	C511.114929,119.421890 505.062836,121.640816 500.122101,126.734787 
	C498.243805,128.671387 497.638702,131.920044 500.928894,131.773010 
	C504.958618,131.592941 506.617462,133.889435 508.622040,136.060791 
	C513.666199,141.524612 520.713928,145.527817 522.686462,154.044022 
z"/>
<path fill="#10b981" opacity="1.000000" stroke="none" 
	d="
M543.514893,760.141479 
	C543.514893,810.602844 543.514893,861.064148 543.514893,911.993835 
	C564.081116,914.176819 580.125244,923.366455 590.534241,941.193237 
	C597.896667,953.802429 599.742065,967.422729 596.961853,981.695557 
	C591.682373,1008.798096 566.007019,1028.697510 538.206665,1027.267578 
	C509.015564,1025.766357 485.826782,1003.706177 483.132202,975.025330 
	C480.588989,947.955444 499.124969,915.664124 537.798218,911.784851 
	C537.798218,861.591797 537.798218,811.332825 538.204529,760.550842 
	C540.245544,760.065674 541.880188,760.103577 543.514893,760.141479 
M542.354797,994.095459 
	C544.174133,989.236389 545.993530,984.377319 547.887817,979.318115 
	C550.066650,980.458801 551.206787,981.143433 552.414490,981.674255 
	C563.279907,986.449768 573.992981,982.004822 577.778503,970.832153 
	C579.095947,966.943665 579.713806,962.757690 580.185486,958.654114 
	C581.659180,945.831909 581.522339,945.471069 568.619385,947.330566 
	C562.656799,948.189880 556.528809,949.939514 551.208069,952.697876 
	C544.551880,956.148499 542.384338,965.152222 545.915222,969.748474 
	C550.401794,966.409607 554.795959,962.938843 559.430969,959.826660 
	C560.640564,959.014404 562.599731,959.318542 564.214722,959.110046 
	C563.234619,960.343201 562.507446,962.044434 561.233032,962.732849 
	C553.523865,966.897583 547.642212,972.798828 543.524109,980.490723 
	C542.741455,981.952637 542.069275,983.476807 541.405212,984.998108 
	C540.752258,986.493713 540.174438,988.022156 539.161377,990.533203 
	C536.219055,975.301819 530.759766,962.744202 518.339111,954.268982 
	C517.677490,953.817444 517.683960,952.387085 517.379395,951.412354 
	C518.427063,951.467712 519.862061,951.099854 520.459778,951.646790 
	C524.476074,955.322327 528.285645,959.222534 532.233154,962.975281 
	C533.101318,963.800598 534.254517,964.326050 535.276489,964.989563 
	C535.803040,964.027588 536.614136,963.120239 536.810669,962.094971 
	C538.235718,954.663391 534.845154,947.619873 528.069824,944.113464 
	C520.279419,940.081726 511.785706,939.650269 503.267273,939.890137 
	C502.279114,939.917969 500.423615,941.959961 500.531433,942.886414 
	C501.372131,950.109558 501.782379,957.537964 503.896301,964.420410 
	C506.850769,974.039551 515.084717,977.927734 524.869080,975.668091 
	C526.609436,975.266052 528.295471,974.628784 530.142883,974.058044 
	C530.607361,974.981140 531.021790,975.684265 531.328125,976.431580 
	C535.564331,986.765991 536.575256,997.656738 537.001465,1008.671082 
	C537.047668,1009.866150 538.075684,1011.023132 538.648315,1012.197815 
	C539.330322,1011.061646 540.440918,1009.988159 540.618164,1008.778015 
	C541.291626,1004.180359 541.663269,999.538391 542.354797,994.095459 
z"/>
<path fill="#10b981" opacity="1.000000" stroke="none" 
	d="
M354.926636,654.805542 
	C318.445251,675.817871 281.963501,696.829590 245.482819,717.843140 
	C236.552322,722.987183 227.625290,728.137329 218.302933,733.511719 
	C226.497681,752.050476 226.852249,770.393250 216.898849,788.224243 
	C209.889862,800.780518 199.408890,809.444641 185.813705,814.252686 
	C158.967972,823.747009 129.220673,812.073669 115.870880,786.819214 
	C102.532043,761.585449 109.586182,730.436707 132.603027,713.584778 
	C145.900513,703.848877 160.851822,700.318665 177.042145,703.237488 
	C193.198914,706.150269 205.812668,714.906311 215.276337,728.579773 
	C260.851227,702.273804 306.086945,676.163635 351.914429,650.134705 
	C353.313019,651.745789 354.119843,653.275696 354.926636,654.805542 
M133.996796,784.388489 
	C141.968170,792.667114 152.711929,793.134277 159.853912,785.512817 
	C166.559113,778.357483 165.840897,766.999756 158.283173,760.673035 
	C152.137024,755.527893 142.895035,755.476440 136.694489,760.552734 
	C129.661804,766.310181 128.481796,775.017944 133.996796,784.388489 
M192.179504,761.076599 
	C194.339294,761.616150 196.499069,762.155701 198.707413,762.707397 
	C198.911545,755.850708 195.957230,752.513123 189.361130,752.354248 
	C182.203842,752.181824 175.028839,752.538940 167.882339,752.211548 
	C164.350632,752.049683 160.716034,751.279297 157.388123,750.068970 
	C148.043655,746.670776 139.564117,747.721985 131.598877,753.675049 
	C132.613449,757.334656 134.191940,756.854492 136.711914,755.470459 
	C148.481918,749.006348 161.884201,753.643799 167.110672,765.787598 
	C169.194122,770.628540 173.588425,771.318115 177.233078,767.258179 
	C181.025391,763.033752 185.653275,760.876587 192.179504,761.076599 
M180.415176,770.081238 
	C176.878555,775.902649 176.818832,781.375427 180.243423,785.826050 
	C183.409561,789.940735 188.721985,791.812012 193.525650,790.504639 
	C198.813324,789.065491 202.558212,784.789368 203.067474,779.609192 
	C203.613846,774.051636 201.110458,769.260132 196.364197,766.778748 
	C191.065857,764.008850 186.302719,764.853577 180.415176,770.081238 
M140.981018,734.894165 
	C140.981018,737.968811 140.981018,741.043396 140.981018,742.872742 
	C151.515839,744.882080 161.020294,746.694885 171.115372,748.620361 
	C169.691986,742.807190 168.565781,738.207703 167.848251,735.277283 
	C169.576004,732.676392 170.481522,731.313293 171.882767,729.203979 
	C159.393707,729.203979 148.308884,729.203979 137.386551,729.203979 
	C135.093201,733.601562 139.516159,732.570496 140.981018,734.894165 
M187.634903,735.855957 
	C182.055420,737.184387 181.153778,739.222961 182.513397,748.369385 
	C183.779984,747.803467 185.648209,747.531982 185.876846,746.769043 
	C186.870789,743.452209 187.387100,739.992310 187.634903,735.855957 
M170.416550,780.105774 
	C175.310135,780.339905 172.381119,776.322388 174.168930,774.190796 
	C172.087723,774.190796 170.703857,774.190796 168.681839,774.190796 
	C168.986649,776.251465 169.260422,778.102173 170.416550,780.105774 
z"/>
<path fill="#10b981" opacity="1.000000" stroke="none" 
	d="
M729.136597,649.803894 
	C767.066833,671.645935 804.996704,693.488525 842.927368,715.329651 
	C850.686279,719.797302 858.448303,724.259399 866.165955,728.699341 
	C888.560791,697.279785 926.551453,696.838623 949.279968,713.959595 
	C972.953979,731.792786 979.498169,764.701538 964.159485,789.948792 
	C948.599731,815.559937 916.381470,825.030701 889.541260,811.956787 
	C865.348206,800.172302 847.551392,769.054260 863.345337,733.789124 
	C817.933655,707.568481 772.454468,681.308899 726.766602,654.572632 
	C727.417480,652.665283 728.277039,651.234558 729.136597,649.803894 
M932.576233,727.852478 
	C924.775085,730.681030 922.514221,733.903381 922.412476,744.034485 
	C922.234009,761.792847 922.362671,779.554321 922.362671,797.785400 
	C925.983521,799.095886 927.962708,797.326294 928.106750,792.461365 
	C928.237183,788.055542 928.798279,783.662537 929.175354,779.193665 
	C941.001587,783.646057 948.295227,782.289490 952.747803,774.957886 
	C957.715759,766.777649 955.521790,758.800049 945.948853,750.417542 
	C950.087341,746.664001 953.177185,742.423157 951.298157,736.438171 
	C949.691223,731.319824 945.894348,728.515991 940.752747,727.709473 
	C938.344055,727.331665 935.825867,727.652100 932.576233,727.852478 
M885.517700,745.316345 
	C876.575623,747.013489 871.853699,752.030762 870.775574,760.980652 
	C869.688354,770.005859 873.220703,778.591675 879.851624,780.773682 
	C883.440125,781.954529 887.938843,782.332397 891.451416,781.233276 
	C895.030090,780.113525 897.902771,776.737854 900.976196,774.431213 
	C903.741089,781.211182 905.998413,783.375183 909.523071,781.797852 
	C913.236511,780.135925 913.682617,776.795471 913.991699,773.555725 
	C911.395813,775.101990 908.707703,777.766113 907.446838,777.207642 
	C905.505615,776.347900 904.109619,773.426331 903.310669,771.095520 
	C902.728638,769.397766 903.204651,767.169678 903.691345,765.303894 
	C905.308411,759.105591 907.143433,752.964172 908.890320,746.817017 
	C904.500549,745.386658 901.996582,746.430908 901.438171,750.832764 
	C901.313599,751.814636 901.002686,752.780640 900.703064,753.730469 
	C900.403015,754.681824 900.009888,755.603821 899.405518,757.207458 
	C896.591980,750.653442 893.340027,745.753967 885.517700,745.316345 
z"/>
<path fill="#10b981" opacity="1.000000" stroke="none" 
	d="
M351.964935,438.321503 
	C322.394501,421.307861 292.821960,404.297913 263.254517,387.279053 
	C247.258774,378.071991 231.271729,368.849731 214.864761,359.394592 
	C203.042648,376.031464 187.139511,385.253265 166.792435,385.607849 
	C152.255386,385.861176 139.398560,380.860352 128.345749,371.326080 
	C106.607460,352.574463 102.397888,319.651550 118.695389,295.647369 
	C135.028305,271.591095 166.695236,263.625092 192.619034,276.752716 
	C215.314621,288.245575 233.779175,318.763824 217.834976,354.441345 
	C263.268280,380.648804 308.762512,406.891388 354.529480,433.552246 
	C353.856506,435.420807 352.910706,436.871155 351.964935,438.321503 
M129.199203,350.205841 
	C130.301773,350.854218 131.401642,352.063019 132.507309,352.068359 
	C155.218384,352.178040 177.930145,352.152130 200.641754,352.143677 
	C201.465225,352.143372 202.464066,352.300781 203.046539,351.899261 
	C203.397507,351.657318 203.100739,350.475769 203.117310,349.354279 
	C203.117310,349.354279 203.005966,349.008972 202.942139,348.317719 
	C201.879440,346.829346 200.626816,345.439911 199.789871,343.833893 
	C197.336548,339.126099 193.644806,337.897217 188.392914,338.043762 
	C174.083405,338.443085 159.755463,338.181000 145.434814,338.181030 
	C136.257706,338.181061 133.571350,340.081635 129.847992,349.436005 
	C129.847992,349.436005 129.901047,349.707489 129.199203,350.205841 
M137.031052,318.499420 
	C137.031052,324.412323 137.031052,330.325195 137.031052,336.255066 
	C156.889755,336.255066 176.069641,336.255066 195.331604,336.255066 
	C195.331604,323.320251 195.331604,310.783539 195.331604,298.299530 
	C175.766022,298.299530 156.560638,298.299530 137.031067,298.299530 
	C137.031067,304.915985 137.031067,311.207947 137.031052,318.499420 
z"/>
<path fill="#10b981" opacity="1.000000" stroke="none" 
	d="
M351.867065,438.684845 
	C352.910706,436.871155 353.856506,435.420807 354.866577,433.677917 
	C367.176300,413.822266 381.719696,396.191620 399.549133,380.490540 
	C401.219177,378.842377 402.397522,377.614471 403.575867,376.386597 
	C404.708191,375.766083 405.955353,375.291443 406.955688,374.503418 
	C424.125183,360.977997 442.950836,350.372437 463.930298,342.192139 
	C466.120697,341.301117 467.671021,340.636688 469.221344,339.972290 
	C484.848450,336.514862 500.419830,332.768890 516.128662,329.734589 
	C522.906860,328.425354 529.969299,328.588196 537.343994,328.009705 
	C539.421143,327.980316 541.057068,328.023590 543.090210,328.011444 
	C566.597595,328.829895 589.238037,332.353851 611.771790,340.175476 
	C613.991089,340.910065 615.596313,341.415070 617.201599,341.920044 
	C638.714905,350.589325 658.640015,362.009827 677.343994,376.761536 
	C679.120605,378.225403 680.424194,379.292816 681.727722,380.360229 
	C698.823486,395.896881 713.803284,413.210144 726.066528,433.215088 
	C727.072388,434.957031 727.898682,436.438934 728.935913,438.137085 
	C739.016235,457.201660 747.063721,476.735016 751.461670,497.643250 
	C751.835815,499.422119 752.275085,501.187286 752.816956,503.706421 
	C753.302673,506.069366 753.655518,507.684692 754.008423,509.299988 
	C754.688721,525.163879 755.828491,541.026611 755.867126,556.892029 
	C755.888306,565.603455 754.053589,574.319397 752.921204,583.764160 
	C752.525024,586.139282 752.263367,587.783508 752.001709,589.427734 
	C746.393372,605.501038 740.892944,621.613403 735.101013,637.620300 
	C733.646606,641.639893 731.257263,645.321167 729.217102,649.480957 
	C728.277039,651.234558 727.417480,652.665283 726.403442,654.432617 
	C714.003601,674.331787 699.537903,692.026611 681.639832,707.638062 
	C679.927063,709.244995 678.689148,710.447388 677.451294,711.649780 
	C671.760437,715.688416 666.383362,720.294128 660.315552,723.651306 
	C646.367188,731.368286 632.082520,738.477478 617.262573,746.023743 
	C615.023254,746.862610 613.455750,747.511047 611.888245,748.159546 
	C589.992004,755.294495 567.610046,759.665527 544.016663,760.069824 
	C541.880188,760.103577 540.245544,760.065674 538.197876,760.092285 
	C514.593323,759.552429 491.966766,755.717957 469.320312,748.092651 
	C467.107574,747.324585 465.543304,746.755310 463.979004,746.186096 
	C442.342529,737.731140 422.568176,726.035645 403.810028,711.495850 
	C402.062744,710.021851 400.730164,708.902039 399.397583,707.782227 
	C382.376892,692.269897 367.323120,675.110352 355.184235,655.049805 
	C354.119843,653.275696 353.313019,651.745789 352.248810,650.012573 
	C341.987122,630.676697 333.900879,610.827393 329.486542,589.605286 
	C329.183472,588.148254 328.871277,586.693176 328.355103,584.510620 
	C327.813934,582.146545 327.481018,580.509033 327.148132,578.871460 
	C326.363098,566.821777 324.838379,554.762329 324.997009,542.725098 
	C325.162109,530.193726 326.952209,517.683716 328.218628,504.463928 
	C328.636780,502.137909 328.868134,500.512268 329.099487,498.886658 
	C334.362396,483.544891 339.476166,468.149353 344.975769,452.892914 
	C346.708435,448.086334 349.475525,443.652588 351.867065,438.684845 
M744.192444,492.269928 
	C718.460876,384.704163 605.815308,314.459259 497.452332,338.404633 
	C382.981659,363.699707 311.990204,472.162140 334.882416,586.782715 
	C357.866486,701.862854 475.280762,776.562927 589.169006,748.562317 
	C703.787781,720.382080 772.091492,607.978027 744.192444,492.269928 
z"/>
<path fill="#10b981" opacity="1.000000" stroke="none" 
	d="
M328.666687,498.765930 
	C328.868134,500.512268 328.636780,502.137909 328.205536,504.065552 
	C293.120819,497.410187 258.222656,490.518188 223.368423,483.410919 
	C219.108582,482.542267 216.826172,482.819977 214.615372,487.330475 
	C208.291779,500.231812 192.658249,505.823853 179.238052,500.739136 
	C165.817215,495.654114 158.038147,481.098938 161.321838,467.216522 
	C164.675659,453.037628 178.057922,443.591003 192.674637,445.084442 
	C206.654053,446.512756 217.535309,458.311310 218.122543,472.675354 
	C218.169373,473.820740 218.229233,474.965576 218.303360,476.543182 
	C254.994492,483.920105 291.614197,491.282654 328.666687,498.765930 
z"/>
<path fill="#10b981" opacity="1.000000" stroke="none" 
	d="
M752.415955,589.530396 
	C752.263367,587.783508 752.525024,586.139282 752.940063,584.163208 
	C784.412354,590.067444 815.730896,596.305176 847.050415,602.538208 
	C852.572388,603.637146 858.098389,604.716003 863.509644,605.781860 
	C875.604797,587.098389 888.207153,581.533020 903.273499,588.040649 
	C916.070251,593.567932 923.092468,607.789307 919.758667,621.426575 
	C916.407410,635.135742 903.748047,644.044861 889.019348,643.059570 
	C874.028992,642.056824 864.517395,630.862122 862.636353,611.543701 
	C826.135498,604.260315 789.482849,596.946655 752.415955,589.530396 
z"/>
<path fill="#10b981" opacity="1.000000" stroke="none" 
	d="
M469.135498,339.595276 
	C467.671021,340.636688 466.120697,341.301117 464.263062,341.952637 
	C451.712372,308.351288 439.368408,274.798706 427.351227,241.129501 
	C425.826447,236.857544 424.091736,235.771942 419.626282,236.090088 
	C403.165924,237.262863 389.470428,224.314774 389.214630,207.897141 
	C388.964172,191.821442 402.148712,178.733063 418.464600,178.860565 
	C434.644348,178.986984 447.606964,192.411850 446.879517,208.624512 
	C446.375854,219.848434 440.625031,228.012573 430.699951,233.668610 
	C443.519806,268.952637 456.284729,304.085419 469.135498,339.595276 
z"/>
<path fill="#10b981" opacity="1.000000" stroke="none" 
	d="
M611.962402,748.519775 
	C613.455750,747.511047 615.023254,746.862610 616.887695,746.190125 
	C629.299255,779.411560 641.512939,812.621521 653.416382,845.942322 
	C655.109131,850.680908 656.869690,852.448730 662.370300,852.134949 
	C677.526306,851.270447 689.989929,862.515442 691.797180,877.581116 
	C693.492676,891.714722 683.482300,905.693237 669.449219,908.787964 
	C654.731812,912.033569 640.193542,903.629578 635.622131,889.233704 
	C631.457825,876.119934 636.278687,864.422241 650.423218,854.327820 
	C637.672668,819.302185 624.854614,784.091125 611.962402,748.519775 
z"/>
<path fill="#10b981" opacity="1.000000" stroke="none" 
	d="
M681.967163,380.080414 
	C680.424194,379.292816 679.120605,378.225403 677.659485,376.895172 
	C700.371460,349.298096 723.241394,321.964111 746.109558,294.628662 
	C746.961548,293.610260 747.796509,292.577606 748.615723,291.580505 
	C737.757080,273.101166 738.750061,259.091003 751.592896,248.700424 
	C762.852112,239.591080 778.957214,240.218811 789.491028,250.177673 
	C799.819214,259.941986 801.421204,275.792725 793.267822,287.547577 
	C784.479553,300.217896 769.307373,303.207245 753.331604,295.082977 
	C729.675537,323.259918 705.941040,351.530243 681.967163,380.080414 
z"/>
<path fill="#10b981" opacity="1.000000" stroke="none" 
	d="
M399.184082,708.079224 
	C400.730164,708.902039 402.062744,710.021851 403.479706,711.469360 
	C379.931610,740.013062 356.299072,768.229065 332.348358,796.825012 
	C339.016968,804.802490 341.870178,813.853455 339.397430,824.135559 
	C337.732269,831.059448 333.879791,836.577209 328.083099,840.662659 
	C316.382141,848.909424 300.569916,847.333618 290.688751,837.022095 
	C281.007568,826.919189 280.052490,811.151245 288.439240,799.883301 
	C297.432129,787.800964 312.359833,785.105896 327.841125,793.134705 
	C351.494812,764.948730 375.232697,736.662415 399.184082,708.079224 
z"/>
<path fill="#10b981" opacity="1.000000" stroke="none" 
	d="
M754.434692,509.232666 
	C753.655518,507.684692 753.302673,506.069366 752.976440,504.107635 
	C765.113037,501.581970 777.176514,499.063690 789.356018,497.390381 
	C794.226074,496.721252 795.396240,494.807373 795.912109,490.300293 
	C797.530273,476.165314 809.026794,465.901581 823.245850,465.220032 
	C836.605774,464.579712 848.932190,474.000244 852.186951,487.338562 
	C855.609192,501.363342 848.101440,515.754089 834.652161,520.948914 
	C821.175598,526.154236 805.923889,520.599548 799.034790,507.933777 
	C798.018677,506.065704 797.205872,504.087097 796.230713,502.014496 
	C782.353271,504.413239 768.607178,506.789276 754.434692,509.232666 
z"/>
<path fill="#10b981" opacity="1.000000" stroke="none" 
	d="
M617.367493,341.556885 
	C615.596313,341.415070 613.991089,340.910065 612.144897,340.182983 
	C616.737122,326.548981 621.570129,313.137115 626.355774,299.856689 
	C610.467346,287.297089 606.262146,273.468262 613.857483,259.597656 
	C620.607727,247.270172 635.325012,241.576782 648.567200,246.170029 
	C661.371216,250.611298 669.721252,264.132782 667.734192,277.207642 
	C665.216675,293.772949 653.932190,301.652771 631.782715,302.033905 
	C627.066956,314.993744 622.300171,328.093719 617.367493,341.556885 
z"/>
<path fill="#10b981" opacity="1.000000" stroke="none" 
	d="
M463.882202,746.523804 
	C465.543304,746.755310 467.107574,747.324585 468.915009,748.078430 
	C464.419830,761.548279 459.681519,774.833496 454.764282,788.620361 
	C456.026031,789.477905 457.367920,790.347534 458.665741,791.278564 
	C470.383942,799.685669 474.228455,814.953674 467.843109,827.678589 
	C461.460571,840.397827 446.728668,846.556641 433.219116,842.153564 
	C419.772980,837.771179 411.275665,824.146606 413.578308,810.661438 
	C416.111969,795.823669 428.137573,785.258484 442.847229,786.239563 
	C448.436584,786.612488 450.192230,784.754639 451.754395,780.117065 
	C455.516571,768.948303 459.745026,757.936584 463.882202,746.523804 
z"/>
<path fill="#10b981" opacity="1.000000" stroke="none" 
	d="
M326.720825,578.923889 
	C327.481018,580.509033 327.813934,582.146545 328.150574,584.150391 
	C314.242462,586.962097 300.330627,589.407654 286.510956,591.836975 
	C281.599854,614.199829 271.656555,623.950378 255.016586,622.907837 
	C241.009689,622.030273 229.506439,610.739502 228.159927,596.547363 
	C226.884827,583.107849 236.104248,569.882019 249.243637,566.301453 
	C264.051941,562.266113 277.508423,569.569763 284.951355,586.190491 
	C298.606964,583.807617 312.450256,581.391968 326.720825,578.923889 
z"/>
<path fill="#10b981" opacity="1.000000" stroke="none" 
	d="
M677.694031,711.945557 
	C678.689148,710.447388 679.927063,709.244995 681.468384,707.927979 
	C690.950684,718.770081 700.129517,729.726807 709.228088,740.587708 
	C727.158081,732.728882 741.605225,735.921936 750.048584,749.347900 
	C757.729858,761.562256 755.191833,777.724731 744.164429,786.819336 
	C733.097046,795.946838 717.140137,795.702026 706.625427,786.243591 
	C694.494629,775.331360 693.802368,760.550720 704.810486,744.336304 
	C695.881836,733.672974 686.909302,722.957153 677.694031,711.945557 
z"/>
<path fill="#10b981" opacity="1.000000" stroke="none" 
	d="
M403.332520,376.086487 
	C402.397522,377.614471 401.219177,378.842377 399.767822,380.234680 
	C390.305176,369.473480 381.115540,358.547852 372.007263,347.718964 
	C353.113342,355.403992 338.815857,351.999634 330.676178,338.116821 
	C323.270966,325.486694 326.415070,309.510834 338.071899,300.537445 
	C349.216003,291.958832 365.292389,293.049194 375.546295,302.841675 
	C384.573151,311.462311 389.019318,328.551270 376.297211,343.764679 
	C385.195770,354.400208 394.142487,365.093292 403.332520,376.086487 
z"/>
<path fill="none" opacity="1.000000" stroke="none" 
	d="
M936.677856,342.146240 
	C941.005554,341.663574 943.778015,339.776764 945.707703,335.436890 
	C941.632263,335.436890 938.227234,335.436890 934.463135,335.436890 
	C934.463135,332.887024 934.463135,330.814758 934.463135,328.355316 
	C941.045959,328.355316 947.768127,328.355316 954.489563,328.355316 
	C955.702637,337.661926 949.632324,346.654724 940.525757,349.097412 
	C929.294983,352.109833 918.312256,347.099884 913.946289,336.972656 
	C909.519226,326.703644 913.197815,315.179321 922.679565,309.612915 
	C932.127808,304.066193 945.018372,306.273926 951.646606,314.670990 
	C949.969849,316.237091 948.281189,317.814362 947.661255,318.393433 
	C942.206787,316.925476 937.542236,314.632812 932.886902,314.651550 
	C925.212402,314.682373 919.913818,321.099762 920.035156,328.446808 
	C920.157593,335.860779 925.971252,341.703247 933.755005,342.210297 
	C934.582947,342.264252 935.418823,342.196930 936.677856,342.146240 
z"/>
<path fill="none" opacity="1.000000" stroke="none" 
	d="
M882.098145,313.019043 
	C883.484802,310.008636 884.240173,307.444855 888.406006,307.583466 
	C892.448975,307.717987 892.810608,310.465057 893.915833,312.848358 
	C897.825684,321.279694 901.774109,329.699951 905.372009,338.265503 
	C906.664612,341.342712 907.005310,344.819702 907.901611,348.629395 
	C894.511414,348.629395 882.112610,348.629395 868.608093,348.629395 
	C869.173889,345.436401 869.192993,342.119812 870.370117,339.283813 
	C873.994446,330.551392 878.061523,322.002686 882.098145,313.019043 
M889.531006,321.998535 
	C889.017700,321.294128 888.504395,320.589691 887.671326,319.446381 
	C884.427307,326.794312 881.442017,333.556183 878.251648,340.782715 
	C885.166565,340.782715 891.302185,340.782715 897.897217,340.782715 
	C895.089905,334.456665 892.476990,328.568695 889.531006,321.998535 
z"/>
<path fill="none" opacity="1.000000" stroke="none" 
	d="
M522.331421,153.941696 
	C520.713928,145.527817 513.666199,141.524612 508.622040,136.060791 
	C506.617462,133.889435 504.958618,131.592941 500.928894,131.773010 
	C497.638702,131.920044 498.243805,128.671387 500.122101,126.734787 
	C505.062836,121.640816 511.114929,119.421890 518.213623,120.318275 
	C519.972351,120.540359 521.715759,120.884689 524.054565,121.269684 
	C522.446899,113.761391 523.114624,107.237839 528.390869,101.875481 
	C533.739075,96.439972 540.323364,95.887604 547.699402,97.326294 
	C547.421570,93.895569 546.981934,90.830261 546.966125,87.762764 
	C546.936096,81.939400 549.438965,77.128265 553.663513,73.265160 
	C554.500610,72.499702 556.080383,72.044777 557.174438,72.241806 
	C557.880615,72.368980 558.437134,73.896851 558.863464,74.882347 
	C559.614990,76.619461 559.786682,78.802795 560.960693,80.124893 
	C564.381531,83.977295 568.025818,87.669983 571.899536,91.063286 
	C573.523682,92.485985 575.968384,92.951950 577.996033,93.942802 
	C578.961731,94.414673 580.329895,94.929123 580.595764,95.729782 
	C580.876282,96.574577 580.353455,98.050720 579.677551,98.790436 
	C574.614624,104.331139 568.321167,106.699913 560.825623,105.655022 
	C559.237793,105.433670 557.654419,105.179985 555.515808,104.857880 
	C556.698120,112.346512 556.313354,118.998108 550.912598,124.298470 
	C545.646667,129.466492 539.231323,130.142883 531.856689,128.713470 
	C532.636536,138.747955 534.008606,148.854919 522.331421,153.941696 
M571.769165,98.267731 
	C571.974487,97.241096 572.718567,95.701981 572.303467,95.265656 
	C567.062683,89.756706 561.654846,84.406677 556.289612,79.016075 
	C555.806763,79.111122 555.323914,79.206161 554.841064,79.301208 
	C554.744934,81.128899 553.826843,83.682365 554.691528,84.661667 
	C558.978271,89.516502 563.695740,93.997581 568.384155,98.481987 
	C568.894226,98.969856 570.194153,98.631889 571.769165,98.267731 
M507.407227,131.079681 
	C512.655334,136.406204 517.903381,141.732727 523.499756,147.412689 
	C524.560730,145.488373 525.326904,144.098694 526.278381,142.372955 
	C521.330017,137.554169 516.617554,132.856796 511.744812,128.332062 
	C510.976898,127.618996 509.266235,127.175232 508.390381,127.546944 
	C507.609528,127.878334 507.380920,129.510971 507.407227,131.079681 
M545.023376,109.489037 
	C543.489319,107.959595 541.839355,106.527969 540.447754,104.878365 
	C538.222778,102.240852 536.185059,102.294662 534.576965,104.101952 
	C539.170776,109.084480 543.595276,113.883301 548.049683,118.714607 
	C552.557007,114.174118 547.362244,112.580353 545.023376,109.489037 
M534.631775,116.882248 
	C536.150269,118.405075 537.744141,119.860947 539.169739,121.466270 
	C541.347168,123.918304 543.298523,123.465065 545.145020,121.605148 
	C540.359070,116.867867 535.710693,112.266762 531.136597,107.739159 
	C528.744141,110.990906 528.744141,110.990906 534.631775,116.882248 
M552.355042,89.692780 
	C554.173950,99.215881 557.595337,101.752579 565.944214,99.100372 
	C562.035767,95.367516 558.380310,91.805939 554.596008,88.386894 
	C554.270447,88.092720 553.091431,88.743019 552.355042,89.692780 
M522.352905,135.187378 
	C523.683350,136.454437 525.013733,137.721497 526.817566,139.439377 
	C526.931580,127.624702 524.241760,125.023155 513.180298,126.544647 
	C516.410461,129.578079 519.127869,132.129929 522.352905,135.187378 
M537.127075,123.669380 
	C534.714661,120.865784 532.302246,118.062187 529.426270,114.719910 
	C529.171875,122.360603 529.171875,122.360603 537.127075,123.669380 
M543.840942,102.306015 
	C543.452698,102.659966 542.701660,103.294174 542.727844,103.327995 
	C544.697266,105.877235 546.727966,108.379097 548.753845,110.884682 
	C550.700317,105.356712 549.353821,102.625000 543.840942,102.306015 
z"/>
<path fill="none" opacity="1.000000" stroke="none" 
	d="
M542.251221,994.504272 
	C541.663269,999.538391 541.291626,1004.180359 540.618164,1008.778015 
	C540.440918,1009.988159 539.330322,1011.061646 538.648315,1012.197815 
	C538.075684,1011.023132 537.047668,1009.866150 537.001465,1008.671082 
	C536.575256,997.656738 535.564331,986.765991 531.328125,976.431580 
	C531.021790,975.684265 530.607361,974.981140 530.142883,974.058044 
	C528.295471,974.628784 526.609436,975.266052 524.869080,975.668091 
	C515.084717,977.927734 506.850769,974.039551 503.896301,964.420410 
	C501.782379,957.537964 501.372131,950.109558 500.531433,942.886414 
	C500.423615,941.959961 502.279114,939.917969 503.267273,939.890137 
	C511.785706,939.650269 520.279419,940.081726 528.069824,944.113464 
	C534.845154,947.619873 538.235718,954.663391 536.810669,962.094971 
	C536.614136,963.120239 535.803040,964.027588 535.276489,964.989563 
	C534.254517,964.326050 533.101318,963.800598 532.233154,962.975281 
	C528.285645,959.222534 524.476074,955.322327 520.459778,951.646790 
	C519.862061,951.099854 518.427063,951.467712 517.379395,951.412354 
	C517.683960,952.387085 517.677490,953.817444 518.339111,954.268982 
	C530.759766,962.744202 536.219055,975.301819 539.161377,990.533203 
	C540.174438,988.022156 540.752258,986.493713 541.405212,984.998108 
	C542.069275,983.476807 542.741455,981.952637 543.524109,980.490723 
	C547.642212,972.798828 553.523865,966.897583 561.233032,962.732849 
	C562.507446,962.044434 563.234619,960.343201 564.214722,959.109985 
	C562.599731,959.318542 560.640564,959.014404 559.430969,959.826660 
	C554.795959,962.938843 550.401794,966.409607 545.915222,969.748474 
	C542.384338,965.152222 544.551880,956.148499 551.208069,952.697876 
	C556.528809,949.939514 562.656799,948.189880 568.619385,947.330566 
	C581.522339,945.471069 581.659180,945.831909 580.185486,958.654114 
	C579.713806,962.757690 579.095947,966.943665 577.778503,970.832153 
	C573.992981,982.004822 563.279907,986.449768 552.414490,981.674255 
	C551.206787,981.143433 550.066650,980.458801 547.887817,979.318115 
	C545.993530,984.377319 544.174133,989.236389 542.251221,994.504272 
z"/>
<path fill="none" opacity="1.000000" stroke="none" 
	d="
M133.770905,784.091553 
	C128.481796,775.017944 129.661804,766.310181 136.694489,760.552734 
	C142.895035,755.476440 152.137024,755.527893 158.283173,760.673035 
	C165.840897,766.999756 166.559113,778.357483 159.853912,785.512817 
	C152.711929,793.134277 141.968170,792.667114 133.770905,784.091553 
M148.224152,767.420288 
	C144.123535,767.390503 141.043716,769.366882 141.251816,773.420471 
	C141.366241,775.649292 143.538712,778.672424 145.597763,779.691040 
	C148.710709,781.231079 151.885910,779.695862 153.245865,776.192444 
	C154.911331,771.902039 152.940414,769.193604 148.224152,767.420288 
z"/>
<path fill="none" opacity="1.000000" stroke="none" 
	d="
M191.759735,761.052917 
	C185.653275,760.876587 181.025391,763.033752 177.233078,767.258179 
	C173.588425,771.318115 169.194122,770.628540 167.110672,765.787598 
	C161.884201,753.643799 148.481918,749.006348 136.711914,755.470459 
	C134.191940,756.854492 132.613449,757.334656 131.598877,753.675049 
	C139.564117,747.721985 148.043655,746.670776 157.388123,750.068970 
	C160.716034,751.279297 164.350632,752.049683 167.882339,752.211548 
	C175.028839,752.538940 182.203842,752.181824 189.361130,752.354248 
	C195.957230,752.513123 198.911545,755.850708 198.707413,762.707397 
	C196.499069,762.155701 194.339294,761.616150 191.759735,761.052917 
z"/>
<path fill="none" opacity="1.000000" stroke="none" 
	d="
M180.672791,769.798584 
	C186.302719,764.853577 191.065857,764.008850 196.364197,766.778748 
	C201.110458,769.260132 203.613846,774.051636 203.067474,779.609192 
	C202.558212,784.789368 198.813324,789.065491 193.525650,790.504639 
	C188.721985,791.812012 183.409561,789.940735 180.243423,785.826050 
	C176.818832,781.375427 176.878555,775.902649 180.672791,769.798584 
z"/>
<path fill="none" opacity="1.000000" stroke="none" 
	d="
M140.910583,734.445190 
	C139.516159,732.570496 135.093201,733.601562 137.386551,729.203979 
	C148.308884,729.203979 159.393707,729.203979 171.882767,729.203979 
	C170.481522,731.313293 169.576004,732.676392 167.848251,735.277283 
	C168.565781,738.207703 169.691986,742.807190 171.115372,748.620361 
	C161.020294,746.694885 151.515839,744.882080 140.981018,742.872742 
	C140.981018,741.043396 140.981018,737.968811 140.910583,734.445190 
z"/>
<path fill="none" opacity="1.000000" stroke="none" 
	d="
M187.855942,736.220154 
	C187.387100,739.992310 186.870789,743.452209 185.876846,746.769043 
	C185.648209,747.531982 183.779984,747.803467 182.513397,748.369385 
	C181.153778,739.222961 182.055420,737.184387 187.855942,736.220154 
z"/>
<path fill="none" opacity="1.000000" stroke="none" 
	d="
M169.975372,780.029358 
	C169.260422,778.102173 168.986649,776.251465 168.681839,774.190796 
	C170.703857,774.190796 172.087723,774.190796 174.168930,774.190796 
	C172.381119,776.322388 175.310135,780.339905 169.975372,780.029358 
z"/>
<path fill="none" opacity="1.000000" stroke="none" 
	d="
M932.966797,727.754272 
	C935.825867,727.652100 938.344055,727.331665 940.752747,727.709473 
	C945.894348,728.515991 949.691223,731.319824 951.298157,736.438171 
	C953.177185,742.423157 950.087341,746.664001 945.948853,750.417542 
	C955.521790,758.800049 957.715759,766.777649 952.747803,774.957886 
	C948.295227,782.289490 941.001587,783.646057 929.175354,779.193665 
	C928.798279,783.662537 928.237183,788.055542 928.106750,792.461365 
	C927.962708,797.326294 925.983521,799.095886 922.362671,797.785400 
	C922.362671,779.554321 922.234009,761.792847 922.412476,744.034485 
	C922.514221,733.903381 924.775085,730.681030 932.966797,727.754272 
M929.047974,737.184570 
	C928.967163,748.178528 928.870361,759.172485 928.812439,770.166565 
	C928.783752,775.619934 931.438477,778.404053 937.466125,779.359924 
	C942.158569,780.104065 945.798157,777.845703 947.198120,772.871948 
	C948.994629,766.489990 948.463379,760.248535 944.444641,754.794739 
	C943.560303,753.594482 941.417908,753.193604 939.770325,752.716675 
	C937.844116,752.159058 935.825317,751.921265 933.846680,751.544800 
	C933.898193,750.899170 933.949646,750.253540 934.001099,749.607910 
	C935.342590,749.360962 936.836548,748.605835 937.999207,748.954834 
	C943.128967,750.494263 943.937195,747.038147 944.686646,743.487122 
	C944.958923,742.197449 945.010681,740.840393 944.999451,739.515381 
	C944.956177,734.421753 942.475891,730.696594 938.525696,730.104431 
	C933.625732,729.369934 930.570312,731.674377 929.047974,737.184570 
z"/>
<path fill="none" opacity="1.000000" stroke="none" 
	d="
M885.908630,745.318604 
	C893.340027,745.753967 896.591980,750.653442 899.405518,757.207458 
	C900.009888,755.603821 900.403015,754.681824 900.703064,753.730469 
	C901.002686,752.780640 901.313599,751.814636 901.438171,750.832764 
	C901.996582,746.430908 904.500549,745.386658 908.890320,746.817017 
	C907.143433,752.964172 905.308411,759.105591 903.691345,765.303894 
	C903.204651,767.169678 902.728638,769.397766 903.310669,771.095520 
	C904.109619,773.426331 905.505615,776.347900 907.446838,777.207642 
	C908.707703,777.766113 911.395813,775.101990 913.991699,773.555725 
	C913.682617,776.795471 913.236511,780.135925 909.523071,781.797852 
	C905.998413,783.375183 903.741089,781.211182 900.976196,774.431213 
	C897.902771,776.737854 895.030090,780.113525 891.451416,781.233276 
	C887.938843,782.332397 883.440125,781.954529 879.851624,780.773682 
	C873.220703,778.591675 869.688354,770.005859 870.775574,760.980652 
	C871.853699,752.030762 876.575623,747.013489 885.908630,745.318604 
M878.056091,760.000000 
	C878.398926,764.606140 878.093018,769.383484 879.251160,773.774536 
	C880.652832,779.088928 886.271790,780.989746 890.271301,778.313049 
	C894.922913,775.199951 898.840881,763.372192 896.945679,758.163940 
	C894.719116,752.044983 890.489014,747.729370 886.424988,748.194336 
	C880.089661,748.919312 879.221191,754.196289 878.056091,760.000000 
z"/>
<path fill="none" opacity="1.000000" stroke="none" 
	d="
M137.031067,317.999664 
	C137.031067,311.207947 137.031067,304.915985 137.031067,298.299530 
	C156.560638,298.299530 175.766022,298.299530 195.331604,298.299530 
	C195.331604,310.783539 195.331604,323.320251 195.331604,336.255066 
	C176.069641,336.255066 156.889755,336.255066 137.031052,336.255066 
	C137.031052,330.325195 137.031052,324.412323 137.031067,317.999664 
M177.484482,303.958801 
	C166.086914,303.958801 154.689346,303.958801 143.189331,303.958801 
	C143.189331,313.085602 143.189331,321.527435 143.189331,330.248962 
	C158.690338,330.248962 174.022949,330.248962 189.316833,330.248962 
	C189.316833,321.281616 189.316833,312.744476 189.316833,303.958801 
	C185.439346,303.958801 181.957565,303.958801 177.484482,303.958801 
z"/>
<path fill="none" opacity="1.000000" stroke="none" 
	d="
M129.907501,349.166199 
	C133.571350,340.081635 136.257706,338.181061 145.434814,338.181030 
	C159.755463,338.181000 174.083405,338.443085 188.392914,338.043762 
	C193.644806,337.897217 197.336548,339.126099 199.789871,343.833893 
	C200.626816,345.439911 201.879440,346.829346 202.504944,348.659790 
	C178.014343,349.056671 153.960922,349.111450 129.907501,349.166199 
M187.048981,345.730896 
	C188.047470,345.824432 189.045944,345.917999 190.764114,345.956360 
	C195.790298,343.535706 190.479416,342.484009 191.018402,340.657623 
	C190.514084,340.673157 190.009750,340.688660 189.505417,340.704193 
	C189.326614,342.090759 189.147812,343.477295 188.502396,344.920715 
	C188.502396,344.920715 188.039993,344.836212 187.998978,344.163666 
	C187.286346,343.261902 186.573715,342.360168 185.861084,341.458405 
	C185.489563,341.797974 185.118042,342.137512 184.746521,342.477081 
	C185.535614,343.326019 186.324707,344.174927 187.048981,345.730896 
M176.884232,341.740906 
	C176.803452,341.691437 176.722656,341.641968 176.641861,341.592499 
	C176.764343,341.725952 176.886826,341.859375 176.917389,342.707245 
	C176.645767,343.963776 176.374161,345.220276 176.105576,346.462769 
	C179.104736,345.896484 181.389526,345.465088 184.227676,344.929199 
	C183.769211,343.421539 183.271378,341.784454 183.126297,341.307343 
	C180.219452,341.640045 178.606247,341.824677 176.884232,341.740906 
M162.331894,342.561890 
	C160.990555,342.307495 159.649216,342.053131 157.905090,341.722382 
	C158.095581,343.725830 158.239929,345.244019 158.386642,346.787079 
	C161.099396,346.186279 163.294250,345.700165 166.233414,345.049225 
	C165.759766,343.658417 165.229691,342.101929 164.699600,340.545410 
	C164.063293,341.048828 163.427002,341.552277 162.331894,342.561890 
M170.007416,342.471069 
	C169.021149,342.629822 168.034882,342.788605 167.048615,342.947357 
	C167.759491,343.966827 168.348114,345.710266 169.206635,345.855255 
	C171.000305,346.158081 172.936432,345.617310 175.283310,345.374573 
	C174.795441,343.387024 174.407303,341.805756 173.888931,339.693970 
	C172.389069,341.077240 171.523590,341.875458 170.007416,342.471069 
M144.119354,345.550385 
	C145.324646,345.550385 146.529922,345.550385 148.706543,345.550385 
	C147.738327,343.164490 147.046082,341.458679 146.566788,340.277588 
	C144.510635,341.230774 143.146744,341.570831 142.196182,342.390350 
	C141.338684,343.129639 140.933517,344.393555 140.328873,345.426147 
	C141.403076,345.601654 142.477280,345.777130 144.119354,345.550385 
M154.278900,343.112030 
	C155.119919,342.961304 155.960953,342.810577 156.801987,342.659851 
	C156.329605,341.905243 155.857224,341.150635 155.384811,340.396057 
	C154.949890,341.072510 154.514954,341.748962 154.278900,343.112030 
M150.261948,341.761871 
	C150.103638,342.532654 149.945328,343.303406 149.787018,344.074188 
	C150.348083,344.176147 150.909149,344.278107 151.470230,344.380035 
	C151.261703,343.594513 151.053192,342.808960 150.261948,341.761871 
z"/>
<path fill="none" opacity="1.000000" stroke="none" 
	d="
M203.095047,349.716431 
	C203.100739,350.475769 203.397507,351.657318 203.046539,351.899261 
	C202.464066,352.300781 201.465225,352.143372 200.641754,352.143677 
	C177.930145,352.152130 155.218384,352.178040 132.507309,352.068359 
	C131.401642,352.063019 130.301773,350.854218 130.013809,350.070343 
	C154.917297,349.862030 179.006165,349.789215 203.095047,349.716431 
z"/>
<path fill="#10b981" opacity="1.000000" stroke="none" 
	d="
M203.106171,349.535339 
	C179.006165,349.789215 154.917297,349.862030 130.364731,349.821167 
	C129.901047,349.707489 129.847992,349.436005 129.877747,349.301086 
	C153.960922,349.111450 178.014343,349.056671 202.536865,349.005432 
	C203.005966,349.008972 203.117310,349.354279 203.106171,349.535339 
z"/>
<path fill="none" opacity="1.000000" stroke="none" 
	d="
M744.309814,492.665619 
	C772.091492,607.978027 703.787781,720.382080 589.169006,748.562317 
	C475.280762,776.562927 357.866486,701.862854 334.882416,586.782715 
	C311.990204,472.162140 382.981659,363.699707 497.452332,338.404633 
	C605.815308,314.459259 718.460876,384.704163 744.309814,492.665619 
M646.363464,718.941040 
	C719.670532,673.004517 756.344238,592.123413 741.839539,508.375610 
	C722.563538,397.078979 614.144775,322.146637 502.834808,343.190308 
	C391.013245,364.330658 317.972260,472.636505 340.183197,584.371582 
	C367.631439,722.453674 524.548035,791.744080 646.363464,718.941040 
z"/>
<path fill="#10b981" opacity="1.000000" stroke="none" 
	d="
M889.697571,322.339630 
	C892.476990,328.568695 895.089905,334.456665 897.897217,340.782715 
	C891.302185,340.782715 885.166565,340.782715 878.251648,340.782715 
	C881.442017,333.556183 884.427307,326.794312 887.671326,319.446381 
	C888.504395,320.589691 889.017700,321.294128 889.697571,322.339630 
z"/>
<path fill="#10b981" opacity="1.000000" stroke="none" 
	d="
M571.448486,98.472359 
	C570.194153,98.631889 568.894226,98.969856 568.384155,98.481987 
	C563.695740,93.997581 558.978271,89.516502 554.691528,84.661667 
	C553.826843,83.682365 554.744934,81.128899 554.841064,79.301208 
	C555.323914,79.206161 555.806763,79.111122 556.289612,79.016075 
	C561.654846,84.406677 567.062683,89.756706 572.303467,95.265656 
	C572.718567,95.701981 571.974487,97.241096 571.448486,98.472359 
z"/>
<path fill="#10b981" opacity="1.000000" stroke="none" 
	d="
M507.157898,130.824524 
	C507.380920,129.510971 507.609528,127.878334 508.390381,127.546944 
	C509.266235,127.175232 510.976898,127.618996 511.744812,128.332062 
	C516.617554,132.856796 521.330017,137.554169 526.278381,142.372955 
	C525.326904,144.098694 524.560730,145.488373 523.499756,147.412689 
	C517.903381,141.732727 512.655334,136.406204 507.157898,130.824524 
z"/>
<path fill="#10b981" opacity="1.000000" stroke="none" 
	d="
M545.278076,109.741852 
	C547.362244,112.580353 552.557007,114.174118 548.049683,118.714607 
	C543.595276,113.883301 539.170776,109.084480 534.576965,104.101952 
	C536.185059,102.294662 538.222778,102.240852 540.447754,104.878365 
	C541.839355,106.527969 543.489319,107.959595 545.278076,109.741852 
z"/>
<path fill="#10b981" opacity="1.000000" stroke="none" 
	d="
M534.380859,116.631683 
	C528.744141,110.990906 528.744141,110.990906 531.136597,107.739159 
	C535.710693,112.266762 540.359070,116.867867 545.145020,121.605148 
	C543.298523,123.465065 541.347168,123.918304 539.169739,121.466270 
	C537.744141,119.860947 536.150269,118.405075 534.380859,116.631683 
z"/>
<path fill="#10b981" opacity="1.000000" stroke="none" 
	d="
M552.331970,89.323669 
	C553.091431,88.743019 554.270447,88.092720 554.596008,88.386894 
	C558.380310,91.805939 562.035767,95.367516 565.944214,99.100372 
	C557.595337,101.752579 554.173950,99.215881 552.331970,89.323669 
z"/>
<path fill="#10b981" opacity="1.000000" stroke="none" 
	d="
M522.099121,134.934570 
	C519.127869,132.129929 516.410461,129.578079 513.180298,126.544647 
	C524.241760,125.023155 526.931580,127.624702 526.817566,139.439377 
	C525.013733,137.721497 523.683350,136.454437 522.099121,134.934570 
z"/>
<path fill="#10b981" opacity="1.000000" stroke="none" 
	d="
M536.810669,123.758568 
	C529.171875,122.360603 529.171875,122.360603 529.426270,114.719910 
	C532.302246,118.062187 534.714661,120.865784 536.810669,123.758568 
z"/>
<path fill="#10b981" opacity="1.000000" stroke="none" 
	d="
M544.192627,102.397888 
	C549.353821,102.625000 550.700317,105.356712 548.753845,110.884682 
	C546.727966,108.379097 544.697266,105.877235 542.727844,103.327995 
	C542.701660,103.294174 543.452698,102.659966 544.192627,102.397888 
z"/>
<path fill="#10b981" opacity="1.000000" stroke="none" 
	d="
M148.576996,767.528564 
	C152.940414,769.193604 154.911331,771.902039 153.245865,776.192444 
	C151.885910,779.695862 148.710709,781.231079 145.597763,779.691040 
	C143.538712,778.672424 141.366241,775.649292 141.251816,773.420471 
	C141.043716,769.366882 144.123535,767.390503 148.576996,767.528564 
z"/>
<path fill="#10b981" opacity="1.000000" stroke="none" 
	d="
M929.110474,736.759583 
	C930.570312,731.674377 933.625732,729.369934 938.525696,730.104431 
	C942.475891,730.696594 944.956177,734.421753 944.999451,739.515381 
	C945.010681,740.840393 944.958923,742.197449 944.686646,743.487122 
	C943.937195,747.038147 943.128967,750.494263 937.999207,748.954834 
	C936.836548,748.605835 935.342590,749.360962 934.001099,749.607910 
	C933.949646,750.253540 933.898193,750.899170 933.846680,751.544800 
	C935.825317,751.921265 937.844116,752.159058 939.770325,752.716675 
	C941.417908,753.193604 943.560303,753.594482 944.444641,754.794739 
	C948.463379,760.248535 948.994629,766.489990 947.198120,772.871948 
	C945.798157,777.845703 942.158569,780.104065 937.466125,779.359924 
	C931.438477,778.404053 928.783752,775.619934 928.812439,770.166565 
	C928.870361,759.172485 928.967163,748.178528 929.110474,736.759583 
z"/>
<path fill="#10b981" opacity="1.000000" stroke="none" 
	d="
M878.094971,759.561829 
	C879.221191,754.196289 880.089661,748.919312 886.424988,748.194336 
	C890.489014,747.729370 894.719116,752.044983 896.945679,758.163940 
	C898.840881,763.372192 894.922913,775.199951 890.271301,778.313049 
	C886.271790,780.989746 880.652832,779.088928 879.251160,773.774536 
	C878.093018,769.383484 878.398926,764.606140 878.094971,759.561829 
z"/>
<path fill="#10b981" opacity="1.000000" stroke="none" 
	d="
M177.980133,303.958801 
	C181.957565,303.958801 185.439346,303.958801 189.316833,303.958801 
	C189.316833,312.744476 189.316833,321.281616 189.316833,330.248962 
	C174.022949,330.248962 158.690338,330.248962 143.189331,330.248962 
	C143.189331,321.527435 143.189331,313.085602 143.189331,303.958801 
	C154.689346,303.958801 166.086914,303.958801 177.980133,303.958801 
z"/>
<path fill="none" opacity="1.000000" stroke="none" 
	d="
M162.561295,342.308777 
	C163.427002,341.552277 164.063293,341.048828 164.699600,340.545410 
	C165.229691,342.101929 165.759766,343.658417 166.233414,345.049225 
	C163.294250,345.700165 161.099396,346.186279 158.386642,346.787079 
	C158.239929,345.244019 158.095581,343.725830 157.905090,341.722382 
	C159.649216,342.053131 160.990555,342.307495 162.561295,342.308777 
z"/>
<path fill="none" opacity="1.000000" stroke="none" 
	d="
M170.332764,342.572388 
	C171.523590,341.875458 172.389069,341.077240 173.888931,339.693970 
	C174.407303,341.805756 174.795441,343.387024 175.283310,345.374573 
	C172.936432,345.617310 171.000305,346.158081 169.206635,345.855255 
	C168.348114,345.710266 167.759491,343.966827 167.048615,342.947388 
	C168.034882,342.788605 169.021149,342.629822 170.332764,342.572388 
z"/>
<path fill="none" opacity="1.000000" stroke="none" 
	d="
M143.835419,345.751526 
	C142.477280,345.777130 141.403076,345.601654 140.328873,345.426147 
	C140.933517,344.393555 141.338684,343.129639 142.196182,342.390350 
	C143.146744,341.570831 144.510635,341.230774 146.566788,340.277588 
	C147.046082,341.458679 147.738327,343.164490 148.706543,345.550385 
	C146.529922,345.550385 145.324646,345.550385 143.835419,345.751526 
z"/>
<path fill="none" opacity="1.000000" stroke="none" 
	d="
M176.993042,342.009308 
	C178.606247,341.824677 180.219452,341.640045 183.126297,341.307343 
	C183.271378,341.784454 183.769211,343.421539 184.227676,344.929199 
	C181.389526,345.465088 179.104736,345.896484 176.105576,346.462769 
	C176.374161,345.220276 176.645767,343.963776 176.958694,342.353638 
	C177.000000,342.000000 176.993042,342.009308 176.993042,342.009308 
z"/>
<path fill="none" opacity="1.000000" stroke="none" 
	d="
M188.968994,344.863861 
	C189.147812,343.477295 189.326614,342.090759 189.505417,340.704193 
	C190.009750,340.688660 190.514084,340.673157 191.018402,340.657623 
	C190.479416,342.484009 195.790298,343.535706 190.272095,345.751526 
	C189.509705,345.319092 189.239365,345.091492 188.968994,344.863861 
z"/>
<path fill="none" opacity="1.000000" stroke="none" 
	d="
M154.179459,342.768738 
	C154.514954,341.748962 154.949890,341.072510 155.384827,340.396057 
	C155.857224,341.150635 156.329605,341.905243 156.801971,342.659851 
	C155.960953,342.810577 155.119919,342.961304 154.179459,342.768738 
z"/>
<path fill="none" opacity="1.000000" stroke="none" 
	d="
M150.553314,341.892639 
	C151.053192,342.808960 151.261703,343.594513 151.470230,344.380035 
	C150.909149,344.278107 150.348083,344.176147 149.787018,344.074188 
	C149.945328,343.303406 150.103638,342.532654 150.553314,341.892639 
z"/>
<path fill="none" opacity="1.000000" stroke="none" 
	d="
M187.113815,345.023865 
	C186.324707,344.174927 185.535614,343.326019 184.746521,342.477081 
	C185.118042,342.137512 185.489563,341.797974 185.861084,341.458405 
	C186.573715,342.360168 187.286346,343.261902 187.791351,344.563843 
	C187.583710,344.964050 187.113815,345.023865 187.113815,345.023865 
z"/>
<path fill="#10b981" opacity="1.000000" stroke="none" 
	d="
M187.081390,345.377380 
	C187.113815,345.023865 187.583710,344.964050 187.811859,344.900146 
	C188.039993,344.836212 188.502396,344.920715 188.735703,344.892273 
	C189.239365,345.091492 189.509705,345.319092 189.912247,345.779114 
	C189.045944,345.917999 188.047470,345.824432 187.081390,345.377380 
z"/>
<path fill="none" opacity="1.000000" stroke="none" 
	d="
M177.004639,341.996399 
	C176.886826,341.859375 176.764343,341.725952 176.641861,341.592499 
	C176.722656,341.641968 176.803452,341.691437 176.938629,341.875122 
	C176.993042,342.009308 177.000000,342.000000 177.004639,341.996399 
z"/>
<path fill="#10b981" opacity="1.000000" stroke="none" 
	d="
M646.043091,719.115601 
	C524.548035,791.744080 367.631439,722.453674 340.183197,584.371582 
	C317.972260,472.636505 391.013245,364.330658 502.834808,343.190308 
	C614.144775,322.146637 722.563538,397.078979 741.839539,508.375610 
	C756.344238,592.123413 719.670532,673.004517 646.043091,719.115601 
M609.293274,561.500000 
	C609.293274,553.389526 609.293274,545.279114 609.293274,537.168640 
	C615.590942,551.048889 620.794434,565.051453 626.082153,579.022095 
	C627.834534,583.651917 628.598877,589.980042 632.009766,592.288147 
	C635.471985,594.630920 641.658325,592.772827 646.624634,593.129761 
	C649.953369,593.369019 651.103149,591.882202 652.155334,588.979065 
	C657.933472,573.036499 663.952393,557.181213 669.906311,541.302551 
	C670.373291,540.057190 670.975952,538.862732 671.515564,537.644653 
	C671.824585,537.726379 672.133667,537.808044 672.442749,537.889771 
	C672.442749,556.151489 672.442749,574.413269 672.442749,592.800171 
	C680.467896,592.800171 688.049255,592.800171 695.785400,592.800171 
	C695.785400,560.324463 695.785400,528.110596 695.785400,495.439758 
	C687.696472,495.439758 679.892700,495.571655 672.097290,495.373291 
	C669.079224,495.296478 667.767151,496.434357 666.693726,499.181976 
	C660.886047,514.048340 654.862793,528.830505 648.899780,543.636047 
	C646.458984,549.696228 643.982727,555.742188 641.150085,562.710876 
	C640.068970,560.244812 639.389038,558.787292 638.783813,557.299377 
	C630.952942,538.047791 623.172363,518.775513 615.236938,499.567261 
	C614.581665,497.981110 612.941040,495.697174 611.679382,495.644989 
	C603.228760,495.295532 594.756714,495.463348 586.010437,495.463348 
	C586.010437,528.162659 586.010437,560.373840 586.010437,592.737915 
	C593.834595,592.737915 601.394348,592.737915 609.293579,592.737915 
	C609.293579,582.445618 609.293579,572.472778 609.293274,561.500000 
M439.268738,496.058136 
	C402.166718,488.124298 373.698212,510.749573 375.113800,547.045166 
	C376.240631,575.938416 400.139008,596.489380 429.303589,593.734009 
	C452.975189,591.497620 477.910522,573.525452 471.396820,538.424438 
	C454.380493,538.424438 437.350006,538.424438 420.353088,538.424438 
	C420.353088,544.261475 420.353088,549.698059 420.353088,555.775024 
	C430.289886,555.775024 439.981445,555.775024 449.850494,555.775024 
	C446.135132,567.474365 436.828003,573.609924 424.768951,572.819580 
	C411.461853,571.947449 401.925232,564.246643 400.178284,552.149048 
	C399.429108,546.961121 399.337952,541.439392 400.253540,536.302002 
	C401.917450,526.966003 407.354889,520.003601 416.822845,517.550720 
	C426.513519,515.040100 435.719086,515.888367 442.737396,524.381348 
	C443.409088,525.194214 444.514801,526.160278 445.434296,526.176208 
	C453.514160,526.316650 461.597504,526.257568 470.145935,526.257568 
	C465.536682,510.030212 455.200958,500.716705 439.268738,496.058136 
M497.833649,573.499634 
	C497.833649,579.923584 497.833649,586.347595 497.833649,592.735779 
	C518.092407,592.735779 537.649658,592.735779 557.220825,592.735779 
	C557.220825,586.352844 557.220825,580.307373 557.220825,573.855591 
	C545.217651,573.855591 533.612976,573.855591 521.948730,573.855591 
	C521.948730,566.700073 521.948730,559.970581 521.948730,552.671204 
	C532.487427,552.671204 542.708862,552.671204 552.965637,552.671204 
	C552.965637,546.208923 552.965637,540.330505 552.965637,533.910156 
	C542.321960,533.910156 532.082214,533.910156 521.981812,533.910156 
	C521.981812,527.267273 521.981812,521.182678 521.981812,514.566650 
	C533.906006,514.566650 545.479797,514.566650 557.251465,514.566650 
	C557.251465,507.979034 557.251465,501.941071 557.251465,495.763428 
	C537.317078,495.763428 517.757080,495.763428 497.833557,495.763428 
	C497.833557,521.564453 497.833557,547.032166 497.833649,573.499634 
z"/>
<path fill="none" opacity="1.000000" stroke="none" 
	d="
M609.293457,562.000000 
	C609.293579,572.472778 609.293579,582.445618 609.293579,592.737915 
	C601.394348,592.737915 593.834595,592.737915 586.010437,592.737915 
	C586.010437,560.373840 586.010437,528.162659 586.010437,495.463348 
	C594.756714,495.463348 603.228760,495.295532 611.679382,495.644989 
	C612.941040,495.697174 614.581665,497.981110 615.236938,499.567261 
	C623.172363,518.775513 630.952942,538.047791 638.783813,557.299377 
	C639.389038,558.787292 640.068970,560.244812 641.150085,562.710876 
	C643.982727,555.742188 646.458984,549.696228 648.899780,543.636047 
	C654.862793,528.830505 660.886047,514.048340 666.693726,499.181976 
	C667.767151,496.434357 669.079224,495.296478 672.097290,495.373291 
	C679.892700,495.571655 687.696472,495.439758 695.785400,495.439758 
	C695.785400,528.110596 695.785400,560.324463 695.785400,592.800171 
	C688.049255,592.800171 680.467896,592.800171 672.442749,592.800171 
	C672.442749,574.413269 672.442749,556.151489 672.442749,537.889771 
	C672.133667,537.808044 671.824585,537.726379 671.515564,537.644653 
	C670.975952,538.862732 670.373291,540.057190 669.906311,541.302551 
	C663.952393,557.181213 657.933472,573.036499 652.155334,588.979065 
	C651.103149,591.882202 649.953369,593.369019 646.624634,593.129761 
	C641.658325,592.772827 635.471985,594.630920 632.009766,592.288147 
	C628.598877,589.980042 627.834534,583.651917 626.082153,579.022095 
	C620.794434,565.051453 615.590942,551.048889 609.293274,537.168640 
	C609.293274,545.279114 609.293274,553.389526 609.293457,562.000000 
z"/>
<path fill="none" opacity="1.000000" stroke="none" 
	d="
M439.670715,496.144897 
	C455.200958,500.716705 465.536682,510.030212 470.145935,526.257568 
	C461.597504,526.257568 453.514160,526.316650 445.434296,526.176208 
	C444.514801,526.160278 443.409088,525.194214 442.737396,524.381348 
	C435.719086,515.888367 426.513519,515.040100 416.822845,517.550720 
	C407.354889,520.003601 401.917450,526.966003 400.253540,536.302002 
	C399.337952,541.439392 399.429108,546.961121 400.178284,552.149048 
	C401.925232,564.246643 411.461853,571.947449 424.768951,572.819580 
	C436.828003,573.609924 446.135132,567.474365 449.850494,555.775024 
	C439.981445,555.775024 430.289886,555.775024 420.353088,555.775024 
	C420.353088,549.698059 420.353088,544.261475 420.353088,538.424438 
	C437.350006,538.424438 454.380493,538.424438 471.396820,538.424438 
	C477.910522,573.525452 452.975189,591.497620 429.303589,593.734009 
	C400.139008,596.489380 376.240631,575.938416 375.113800,547.045166 
	C373.698212,510.749573 402.166718,488.124298 439.670715,496.144897 
z"/>
<path fill="none" opacity="1.000000" stroke="none" 
	d="
M497.833618,572.999756 
	C497.833557,547.032166 497.833557,521.564453 497.833557,495.763428 
	C517.757080,495.763428 537.317078,495.763428 557.251465,495.763428 
	C557.251465,501.941071 557.251465,507.979034 557.251465,514.566650 
	C545.479797,514.566650 533.906006,514.566650 521.981812,514.566650 
	C521.981812,521.182678 521.981812,527.267273 521.981812,533.910156 
	C532.082214,533.910156 542.321960,533.910156 552.965637,533.910156 
	C552.965637,540.330505 552.965637,546.208923 552.965637,552.671204 
	C542.708862,552.671204 532.487427,552.671204 521.948730,552.671204 
	C521.948730,559.970581 521.948730,566.700073 521.948730,573.855591 
	C533.612976,573.855591 545.217651,573.855591 557.220825,573.855591 
	C557.220825,580.307373 557.220825,586.352844 557.220825,592.735779 
	C537.649658,592.735779 518.092407,592.735779 497.833649,592.735779 
	C497.833649,586.347595 497.833649,579.923584 497.833618,572.999756 
z"/>
</svg>